<?xml version="1.0"?>
<svg version="1.1" xmlns="http://www.w3.org/2000/svg" width="180" height="50" style=""><path fill="#2b8bcf" d="M16.232,41.744l1.736,0l0-11.844q0-2.352,1.792-4.144t4.144-1.792q2.296,0,4.144,1.792q1.764,1.764,1.764,4.144l0,11.844l1.792,0l0-11.844q0-2.408,1.792-4.144q1.792-1.792,4.116-1.792q2.352,0,4.144,1.792t1.792,4.144l0,11.844l1.736,0l0-11.844q0-3.192-2.24-5.432t-5.432-2.24q-2.1,0-3.948,1.148q-1.876,1.176-2.688,2.996q-1.092-1.876-2.94-2.996q-1.932-1.148-4.032-1.148q-3.164,0-5.404,2.24q-2.268,2.268-2.268,5.432l0,11.844z M49.77152,41.828l1.764,0l0-19.684l-1.764,0l0,19.684z M70.23504,22.2l-15.176,0l0,1.708l6.888,0l0,17.948l1.736,0l0-17.948l6.552,0l0-1.708z"/><path fill="#" d="M78.500544375,36.40234375q0-0.478515625,0.328125-0.6083984375t0.7109375-0.1298828125q0.669921875,0,1.134765625,0.6015625t0.8818359375,1.3193359375t0.8271484375,1.3193359375t0.970703125,0.6015625q0.423828125,0,0.7724609375-0.2119140625t0.6015625-0.533203125t0.3896484375-0.724609375t0.13671875-0.7998046875q0-1.0390625-0.4169921875-2.146484375t-1.06640625-2.283203125t-1.3740234375-2.40625t-1.3671875-2.501953125t-1.06640625-2.5908203125t-0.423828125-2.6591796875q0-2.009765625,1.203125-3.1171875t3.171875-1.107421875q0.669921875,0,1.353515625,0.19140625t1.2578125,0.57421875t0.9365234375,0.943359375t0.3623046875,1.3125q0,0.24609375-0.3623046875,0.3212890625t-0.5263671875,0.0751953125q-0.24609375,0-0.533203125-0.0615234375t-0.369140625-0.3349609375t-0.232421875-0.62890625t-0.3759765625-0.6630859375t-0.533203125-0.533203125t-0.6767578125-0.2255859375q-0.615234375,0-1.0458984375,0.2529296875t-0.697265625,0.6767578125t-0.396484375,0.9501953125t-0.1298828125,1.0869140625q0,1.3125,0.451171875,2.6455078125t1.12109375,2.65234375t1.4560546875,2.6044921875t1.4560546875,2.501953125t1.12109375,2.37890625t0.451171875,2.201171875q0,0.9296875-0.4375,1.572265625t-1.107421875,1.0458984375t-1.4833984375,0.587890625t-1.5927734375,0.1845703125q-0.833984375,0-1.708984375-0.3349609375t-1.572265625-0.9228515625t-1.1484375-1.3740234375t-0.451171875-1.7021484375z M90.74603265625,22.5595703125q-0.02734375-0.3623046875,0.0615234375-0.68359375t0.3349609375-0.533203125t0.833984375-0.2119140625q0.13671875,0,0.3349609375,0.02734375t0.396484375,0.0888671875t0.3212890625,0.1708984375t0.123046875,0.30078125q0,0.505859375,0.0341796875,1.3330078125t0.0888671875,1.72265625t0.1025390625,1.75t0.0888671875,1.3876953125q1.06640625-0.0546875,2.146484375-0.0546875t2.1328125-0.0546875l1.88671875-0.0546875l0-1.353515625q0-2.26953125-0.0888671875-4.5458984375t-0.3076171875-4.5458984375q0-0.1640625,0.13671875-0.2666015625t0.3212890625-0.1572265625t0.3828125-0.068359375t0.3076171875-0.013671875q0.314453125,0,0.6767578125,0.095703125t0.4169921875,0.41015625l0.08203125,0.587890625q0.341796875,2.4609375,0.46484375,4.8671875t0.177734375,4.8125q0.1640625,0.02734375,0.3486328125,0.0888671875t0.3759765625,0.1162109375q0.13671875,0.0546875,0.3896484375,0.1640625t0.2529296875,0.341796875q0,0.21875-0.19140625,0.341796875t-0.4306640625,0.1845703125t-0.46484375,0.0751953125t-0.2802734375,0.013671875q0.02734375,1.01171875,0.02734375,2.0166015625l0,2.0166015625l0,4.416015625l0,2.4609375q0,0.1640625-0.1572265625,0.2939453125t-0.3759765625,0.2119140625t-0.4580078125,0.109375t-0.4306640625,0.02734375t-0.451171875-0.02734375t-0.46484375-0.109375t-0.3623046875-0.205078125t-0.1572265625-0.30078125l0-0.587890625q0.0546875-2.59765625,0.123046875-5.1474609375t0.13671875-5.1201171875q-1.490234375,0.0546875-3.0283203125,0.068359375t-3.0556640625,0.068359375q0.1640625,1.927734375,0.3759765625,3.8486328125t0.4443359375,3.8486328125q0,0.1640625-0.1572265625,0.2939453125t-0.369140625,0.2119140625t-0.451171875,0.109375t-0.4306640625,0.02734375q-0.396484375,0-0.8681640625-0.13671875t-0.5263671875-0.505859375q-0.1640625-1.44921875-0.3076171875-3.19921875t-0.2529296875-3.5751953125t-0.1708984375-3.5751953125t-0.0615234375-3.171875q0-0.341796875-0.02734375-0.7041015625z M106.3684740625,29.333984375q0-0.806640625,0.0888671875-1.955078125t0.328125-2.392578125t0.642578125-2.474609375t1.0322265625-2.173828125t1.50390625-1.490234375q0.724609375-0.451171875,1.66796875-0.451171875q0.19140625,0,0.396484375,0.02734375q2.37890625,0.21875,3.6572265625,1.0869140625t1.8662109375,2.201171875t0.68359375,3.03515625t0.095703125,3.5888671875q0,1.517578125-0.2802734375,3.3017578125t-0.9912109375,3.3291015625t-1.9619140625,2.5771484375t-3.1787109375,1.0322265625q-1.17578125,0-2.0576171875-0.4306640625t-1.4970703125-1.1484375t-1.01171875-1.66796875t-0.6015625-1.96875t-0.2939453125-2.0576171875t-0.0888671875-1.96875z M109.1438646875,28.71875q0,0.587890625,0.013671875,1.4423828125t0.1162109375,1.7978515625t0.2666015625,1.8798828125t0.4853515625,1.7021484375t0.8134765625,1.2578125t1.189453125,0.51953125l0.068359375,0q0.62890625,0,1.12109375-0.478515625q0.51953125-0.505859375,0.9228515625-1.216796875t0.697265625-1.4970703125t0.5263671875-1.3466796875l-0.0546875,0.123046875q0.396484375-1.2578125,0.533203125-2.5771484375t0.13671875-2.6044921875q0-0.615234375-0.08203125-1.4833984375t-0.2666015625-1.8115234375t-0.478515625-1.8662109375t-0.7451171875-1.6064453125t-1.052734375-1.0390625q-0.4375-0.259765625-0.970703125-0.2734375q-0.205078125,0-0.41015625,0.041015625q-0.697265625,0.13671875-1.189453125,0.68359375t-0.7998046875,1.3466796875t-0.4716796875,1.75t-0.2529296875,1.9140625t-0.1025390625,1.845703125t-0.013671875,1.4970703125z M115.3098803125,32.9296875l0-0.02734375l0,0.02734375z M121.15693109375,21.6640625q0-0.642578125,0.0341796875-1.271484375t0.1162109375-1.244140625q0.0546875-0.314453125,0.4853515625-0.451171875t0.7177734375-0.13671875l0.328125,0.02734375q0.396484375,0.0546875,0.7998046875-0.0546875t0.7998046875-0.109375q0.9296875,0,2.078125,0.205078125t2.1533203125,0.697265625t1.6884765625,1.2919921875t0.68359375,1.9755859375t-0.7109375,2.1943359375t-1.791015625,1.791015625t-2.32421875,1.2099609375t-2.283203125,0.4375q0.109375,2.638671875,0.3076171875,5.236328125t0.6767578125,5.1953125l0.02734375,0.177734375q0,0.19140625-0.1708984375,0.314453125t-0.4033203125,0.1982421875t-0.4716796875,0.1025390625t-0.3896484375,0.02734375q-0.341796875,0-0.8271484375-0.1298828125t-0.5947265625-0.5126953125q-0.314453125-1.203125-0.4921875-2.6455078125t-0.259765625-3.0146484375t-0.1162109375-3.1650390625t-0.0341796875-3.1103515625l0-3.076171875q0-0.505859375-0.013671875-1.052734375t-0.013671875-1.107421875z M123.74091546875,19.44921875q0,1.873046875,0.041015625,3.7392578125t0.095703125,3.7392578125q0.806640625-0.1640625,1.6474609375-0.5810546875t1.517578125-0.9912109375t1.09375-1.3056640625t0.4169921875-1.5380859375q0-0.724609375-0.3623046875-1.298828125t-0.9365234375-0.984375q-0.560546875-0.396484375-1.271484375-0.615234375q-0.62890625-0.19140625-1.23046875-0.19140625l-0.150390625,0z"/></svg>
